<?xml version="1.0" encoding="UTF-8"?>
<svg width="283px" height="172px" viewBox="0 0 283 172" version="1.1" xmlns="http://www.w3.org/2000/svg" xmlns:xlink="http://www.w3.org/1999/xlink">
    <!-- Generator: Sketch 51.2 (57519) - http://www.bohemiancoding.com/sketch -->
    <title>PUFFS_graphic</title>
    <desc>Created with Sketch.</desc>
    <defs></defs>
    <g id="Page-1" stroke="none" stroke-width="1" fill="none" fill-rule="evenodd">
        <g id="Nexa-home" transform="translate(-138.000000, -2076.000000)">
            <g id="Group-18" transform="translate(138.000000, 2068.000000)">
                <g id="PUFFS_graphic">
                    <text id="TO" font-family="GothamHTF-Ultra, Gotham HTF" font-size="34" font-weight="600" fill="#FBB03B">
                        <tspan x="43.272" y="74">TO</tspan>
                    </text>
                    <g id="Puffs" transform="translate(0.000000, 8.000000)">
                        <g id="Group" fill="#636362">
                            <path d="M9.48906225,116.086704 L10.4754652,116.086704 L10.4754652,103.699261 L9.48906225,103.699261 L9.48906225,116.086704 Z M12.6687089,116.086704 L13.6562252,116.086704 L13.6562252,103.699261 L12.6687089,103.699261 L12.6687089,116.086704 Z M14.7773401,116.086704 L15.7637431,116.086704 L15.7637431,103.699261 L14.7773401,103.699261 L14.7773401,116.086704 Z M19.1660541,116.086704 L20.1502304,116.086704 L20.1502304,103.699261 L19.1660541,103.699261 L19.1660541,116.086704 Z M21.273572,116.086704 L22.2766748,116.086704 L22.2766748,103.699261 L21.273572,103.699261 L21.273572,116.086704 Z M23.3955631,116.086704 L24.3830794,116.086704 L24.3830794,103.699261 L23.3955631,103.699261 L23.3955631,116.086704 Z M35.9460381,132.923711 L35.8959387,131.832351 C35.5096161,127.584683 32.8532306,124.707664 28.6693678,124.325184 L28.6159283,124.325184 L30.3193105,123.266351 L30.3193105,115.348662 L27.7163644,115.348662 L27.7163644,102.964583 L27.666265,102.927569 C21.9315451,99.2171686 21.9950044,97.4359969 21.0854206,91.0605688 L21.0854206,91 L13.8755496,91 L13.8755496,91.0762718 C13.6239389,96.990704 12.5607167,99.635542 7.71999413,103.219197 L7.66544137,103.252846 L7.66544137,115.348662 L5.09923495,115.348662 L5.09923495,115.53822 L5.11704809,123.250648 L7.14106687,124.223114 L6.9885418,124.173762 L6.73247782,124.173762 L6.37287492,124.206289 C-0.225782549,125.27073 0.00467503479,130.191385 0.000221748158,135.80746 L0.000221748158,136.317808 L0.0158082514,136.936956 C0.0525478661,145.339196 0.0859475159,153.747044 0.0859475159,162.148162 L0.102647341,163.198022 L0.102647341,168.801758 L0.120460487,168.818583 L0.185033144,168.866814 L0.285232093,168.937477 L0.458910272,169.057493 L0.658194848,169.176388 C2.2491315,170.035567 4.09724545,170.486469 5.84961374,170.871193 L6.85382988,171.061872 L7.97160482,171.250309 L9.21852508,171.419677 C16.7223131,172.256424 28.583642,172.647878 35.644328,169.297525 L35.8124395,169.215645 L35.9148651,169.144982 L35.9460381,169.122549 L35.9460381,169.057493 C35.9894577,157.271251 36.0328772,145.480523 35.9638513,133.698768 L35.9460381,132.923711 Z" id="Fill-1"></path>
                            <polygon id="Fill-3" points="16.0869917 74 16 72 16.1739833 72"></polygon>
                            <polygon id="Fill-4" points="16.0881833 70 16 68 16.525525 68 16.4373417 70"></polygon>
                            <polygon id="Fill-5" points="16.0869917 66 16 64 16.8746833 64 16.7876917 66"></polygon>
                            <polygon id="Fill-6" points="16.0719145 61 16 59 17 59 16.9280855 61"></polygon>
                            <polygon id="Fill-7" points="16.0552194 57 16 55 17 55 16.9447806 57"></polygon>
                            <polygon id="Fill-8" points="15.0904025 53 15 51 17 51 16.9095975 53"></polygon>
                            <polygon id="Fill-9" points="15.0764398 48 15 46 17 46 16.9235602 48"></polygon>
                            <polygon id="Fill-10" points="15.0662733 44 15 42 17 42 16.9337267 44"></polygon>
                            <polygon id="Fill-11" points="15.0888711 39 15 37 18 37 17.9111289 39"></polygon>
                            <polygon id="Fill-12" points="15.0784665 35 15 33 18 33 17.9215335 35"></polygon>
                            <polygon id="Fill-13" points="15.0710117 31 15 29 18 29 17.9289883 31"></polygon>
                            <polygon id="Fill-14" points="15.0864161 26 15 24 19 24 18.9124001 26"></polygon>
                            <polygon id="Fill-15" points="14.0795207 22 14 20 18 20 17.91939 22"></polygon>
                            <polygon id="Fill-16" points="14.0736258 18 14 16 18 16 17.9263742 18"></polygon>
                            <polygon id="Fill-17" points="14.0857009 13 14 11 19 11 18.9142991 13"></polygon>
                            <polygon id="Fill-18" points="14.0801317 9 14 7 19 7 18.9187706 9"></polygon>
                            <polygon id="Fill-19" points="14.0753043 5 14 3 19 3 18.9246957 5"></polygon>
                            <polygon id="Fill-20" points="14.003 0.0823425414 14 0 19 0 18.997 0.0823425414"></polygon>
                            <polygon id="Fill-21" points="18 85 18.053625 83 18.2276083 83.0091978"></polygon>
                            <polygon id="Fill-22" points="18 79.9817722 18.053625 78 18.5767667 78.0273418 18.3491583 80"></polygon>
                            <polygon id="Fill-23" points="19 75.9638736 19.053625 74 19.9271167 74.0451581 19.6995083 76"></polygon>
                            <polygon id="Fill-24" points="19 71.9472637 19.0420168 70 20 70.0616915 19.821662 72"></polygon>
                            <polygon id="Fill-25" points="19 66.9299803 19.0659824 65 21 65.0788955 20.7199413 67"></polygon>
                            <polygon id="Fill-26" points="19 62.9129584 19.0542823 61 21 61.0948655 20.7696019 63"></polygon>
                            <polygon id="Fill-27" points="19 57.897237 19.0461302 56 21 56.1124576 20.804203 58"></polygon>
                            <polygon id="Fill-28" points="19 53.8808265 19.040107 52 21 52.1278232 20.8297683 54"></polygon>
                            <polygon id="Fill-29" points="19 49.8637446 19.0531915 48 22 48.1429252 21.7730496 50"></polygon>
                            <polygon id="Fill-30" points="19 44.8488427 19.0476863 43 22 43.1596599 21.797598 45"></polygon>
                            <polygon id="Fill-31" points="19 40.8332553 19.0432138 39 22 39.1751756 21.8165813 41"></polygon>
                            <polygon id="Fill-32" points="19 36.8187732 19.0526624 35 23 35.1895911 22.7764775 37"></polygon>
                            <polygon id="Fill-33" points="19 31.8035961 19.0485044 30 23 30.2037805 22.7941256 32"></polygon>
                            <polygon id="Fill-34" points="20 27.7888483 20.044955 26 24 26.2193784 23.8091908 28"></polygon>
                            <polygon id="Fill-35" points="20 23.774252 20.0523499 22 25 22.2330009 24.775477 24"></polygon>
                            <polygon id="Fill-36" points="20 18.7597841 20.0490089 17 25 17.2474134 24.7908952 19"></polygon>
                            <polygon id="Fill-37" points="20 14.7465417 20.0460688 13 25 13.2614904 24.8034398 15"></polygon>
                            <polygon id="Fill-38" points="20 11.0823425 20.0020032 11 25 11.3603978 24.9929888 11.4427403"></polygon>
                            <polygon id="Fill-39" points="21 80 21.1835167 78 21.3575 78.017427"></polygon>
                            <polygon id="Fill-40" points="21 75.9657431 21.182325 74 21.7054667 74.0513854 21.346775 76"></polygon>
                            <polygon id="Fill-41" points="21 70.9326399 21.1742081 69 22 69.0842001 21.6606335 71"></polygon>
                            <polygon id="Fill-42" points="22 66.9006332 22.1309524 65 23 65.1159279 22.744898 67"></polygon>
                            <polygon id="Fill-43" points="22 62.8697318 22.2099523 61 24 61.1475096 23.591002 63"></polygon>
                            <polygon id="Fill-44" points="22 57.8396983 22.1739625 56 24 56.1763319 23.6588971 58"></polygon>
                            <polygon id="Fill-45" points="23 53.8099212 23.1501706 52 25 52.2058414 24.7074598 54"></polygon>
                            <polygon id="Fill-46" points="23 48.7817352 23.1959027 47 26 47.23379 25.6145967 49"></polygon>
                            <polygon id="Fill-47" points="23 44.7553957 23.1753321 43 26 43.2607914 25.658444 45"></polygon>
                            <polygon id="Fill-48" points="24 41.5921169 24.1568694 39 27 39.4291408 26.6924129 42"></polygon>
                            <polygon id="Fill-49" points="24 36.5538596 24.1913638 34 28 34.468382 27.6272134 37"></polygon>
                            <polygon id="Fill-50" points="24 32.5163371 24.174359 30 28 30.505589 27.6581197 33"></polygon>
                            <polygon id="Fill-51" points="25 28.4800847 25.16202 26 29 26.5415254 28.6843766 29"></polygon>
                            <polygon id="Fill-52" points="25 23.4448622 25.1880801 21 30 21.5764411 29.6323889 24"></polygon>
                            <polygon id="Fill-53" points="25 19.410626 25.1755586 17 30 17.6103789 29.6580027 20"></polygon>
                            <polygon id="Fill-54" points="26 15.3775883 26.1635664 13 31 13.6443362 30.6792816 16"></polygon>
                            <polygon id="Fill-55" points="26 10.3440128 26.1549296 8 31 8.67521025 30.6981891 11"></polygon>
                            <polygon id="Fill-56" points="26 6.08234254 26.0050282 6 31 6.6921547 30.9889381 6.77330387"></polygon>
                            <polygon id="Fill-57" points="13.4015917 78 13 76.0205339 13.1739833 76"></polygon>
                            <polygon id="Fill-58" points="12.4015917 74 12 72.0603622 12.5207583 72 12.7483667 73.9597586"></polygon>
                            <polygon id="Fill-59" points="11.3660131 70 11 68.0976813 11.7930283 68 12 69.9220523"></polygon>
                            <polygon id="Fill-60" points="11.2785124 65 11 63.1344944 11.8429752 63 12 64.8848573"></polygon>
                            <polygon id="Fill-61" points="10.449034 61 10 59.1699098 11.745503 59 12 60.8490745"></polygon>
                            <polygon id="Fill-62" points="9.3759063 57 9 55.2031687 10.7869492 55 11 56.8154706"></polygon>
                            <polygon id="Fill-63" points="9.32357177 52 9 50.2360476 10.8175708 50 11 51.7822507"></polygon>
                            <polygon id="Fill-64" points="8.42459983 48 8 46.2677448 10.7586352 46 11 47.7511231"></polygon>
                            <polygon id="Fill-65" points="7.3792198 45 7 42.4463576 9.78507127 42 10 44.5801325"></polygon>
                            <polygon id="Fill-66" points="6.34088603 40 6 37.4906725 8.80622252 37 9 39.5353579"></polygon>
                            <polygon id="Fill-67" points="6.41502463 36 6 33.5324232 9.76600985 33 10 35.4931741"></polygon>
                            <polygon id="Fill-68" points="5.38089856 32 5 29.5738255 8.78525007 29 9 31.4513423"></polygon>
                            <polygon id="Fill-69" points="4.35091384 27 4 24.6128766 7.80052219 24 8 26.410648"></polygon>
                            <polygon id="Fill-70" points="3.40888134 23 3 20.6516443 7.76947343 20 8 22.3727162"></polygon>
                            <polygon id="Fill-71" points="3.38191296 19 3 16.689173 7.78467815 16 8 18.3347982"></polygon>
                            <polygon id="Fill-72" points="2.3572188 14 2 11.7246263 6.79693812 11 7 13.2989772"></polygon>
                            <polygon id="Fill-73" points="1.33733734 10 1 7.75987607 5.80880881 7 6 9.26336174"></polygon>
                            <polygon id="Fill-74" points="1.01309956 5.88548066 1 5.80552486 5.99294639 5 6 5.08234254"></polygon>
                            <polygon id="Fill-75" points="16.2728917 85 16 83.0122699 16.175175 83"></polygon>
                            <polygon id="Fill-76" points="15.2728917 80 15 78.0353714 15.5243333 78 15.62205 79.9767559"></polygon>
                            <polygon id="Fill-77" points="15.2728917 76 15 74.0589116 15.8734917 74 15.9712083 75.9530704"></polygon>
                            <polygon id="Fill-78" points="14.2052441 72 14 70.08 14.925859 70 15 71.9308642"></polygon>
                            <polygon id="Fill-79" points="14.3271429 67 14 65.102489 15.8828571 65 16 66.9082479"></polygon>
                            <polygon id="Fill-80" points="13.2705257 63 13 61.1235521 14.9031305 61 15 62.8870656"></polygon>
                            <polygon id="Fill-81" points="13.2306143 59 13 57.1450382 14.917422 57 15 58.8664122"></polygon>
                            <polygon id="Fill-82" points="12.301448 54 12 52.1651723 14.8920579 52 15 53.84521"></polygon>
                            <polygon id="Fill-83" points="12.2671073 50 12 48.1848739 14.905521 48 15 49.8263305"></polygon>
                            <polygon id="Fill-84" points="11.2397069 46 11 44.2049861 13.9141661 44 14 45.8060942"></polygon>
                            <polygon id="Fill-85" points="11.2174739 41 11 39.2238465 13.9221273 39 14 40.7871174"></polygon>
                            <polygon id="Fill-86" points="10.2642712 37 10 35.2423146 13.9049551 35 14 36.7685353"></polygon>
                            <polygon id="Fill-87" points="10.2446581 32 10 30.2604027 13.9123932 30 14 31.7494407"></polygon>
                            <polygon id="Fill-88" points="9.22690116 29 9 26.4183267 12.9187515 26 13 28.5976096"></polygon>
                            <polygon id="Fill-89" points="9.26443418 25 9 22.4443471 13.9053118 22 14 24.5714286"></polygon>
                            <polygon id="Fill-90" points="8.24767467 20 8 17.4698482 12.9102315 17 13 19.5444685"></polygon>
                            <polygon id="Fill-91" points="8.23296033 16 8 13.495921 12.9165819 13 13 15.5195363"></polygon>
                            <polygon id="Fill-92" points="7.00801925 11.5561105 7 11.473768 11.9969928 11 12 11.0835359"></polygon>
                        </g>
                        <path d="M105.988281,53.2994982 L129.011204,35.2086002 C131.882207,32.9177102 133.917109,30.9278875 135.12041,29.2391319 C136.320111,27.5513027 136.921312,25.7421203 136.921312,23.8106583 C136.921312,21.8199091 136.291311,20.2543596 135.03221,19.107525 C133.769509,17.9625432 132.116207,17.3891259 130.066905,17.3891259 C128.015803,17.3891259 126.069101,18.0375784 124.222299,19.3344834 C122.378198,20.6313884 120.254195,22.6962464 117.850293,25.5299837 L106.339282,15.6707269 C107.978183,13.4993374 109.649485,11.5697281 111.346887,9.88097252 C113.046088,8.19406969 114.87579,6.77581147 116.841392,5.62990329 C118.801594,4.48492147 120.971496,3.61043698 123.342998,3.00552345 C125.717201,2.40431536 128.396504,2.10046905 131.384506,2.10046905 C134.72531,2.10046905 137.785313,2.5988511 140.567216,3.59376249 C143.352718,4.58960023 145.736821,5.96154042 147.731223,7.71050941 C149.724725,9.4594784 151.276326,11.5864026 152.388727,14.0866501 C153.499328,16.590603 154.060029,19.3196616 154.060029,22.2728995 L154.060029,22.4544662 C154.060029,24.9880627 153.751329,27.2483828 153.135728,29.2391319 C152.520127,31.2289547 151.597627,33.0835288 150.369125,34.8019279 C149.137024,36.520327 147.643923,38.1646172 145.886221,39.7320195 C144.128519,41.3003482 142.108917,42.9288903 139.821115,44.6157931 L129.275804,52.2147299 L154.67473,52.2147299 L154.67473,66.5056963 L105.988281,66.5056963 L105.988281,53.2994982 Z" id="Fill-93" fill="#FBB03B"></path>
                        <path d="M190.090035,52.2143593 C191.787436,52.2143593 193.339938,51.7928652 194.748439,50.9480242 C196.154241,50.1041097 197.338642,48.9128098 198.306143,47.3750511 C199.272744,45.8372923 200.022445,44.0290362 200.547145,41.9484301 C201.073646,39.867824 201.340046,37.5611859 201.340046,35.0275894 L201.340046,34.846949 C201.340046,32.3142789 201.060146,29.9937454 200.504845,27.8807166 C199.947745,25.7713933 199.171944,23.9464627 198.174743,22.4096304 C197.178442,20.8709452 195.978741,19.66575 194.571139,18.7903391 C193.165338,17.9177074 191.611936,17.4786124 189.914535,17.4786124 C188.214433,17.4786124 186.675431,17.9019592 185.29933,18.7458738 C183.923229,19.5907148 182.736127,20.7662665 181.740726,22.2734553 C180.743525,23.7815705 179.985725,25.590753 179.457424,27.7010026 C178.930024,29.813105 178.663623,32.1336386 178.663623,34.6663087 L178.663623,34.846949 C178.663623,37.3805455 178.940824,39.7177536 179.498824,41.8576468 C180.055925,43.99754 180.832626,45.8372923 181.828927,47.3750511 C182.825228,48.9128098 184.025829,50.1041097 185.43343,50.9480242 C186.836532,51.7928652 188.389033,52.2143593 190.090035,52.2143593 M189.914535,67.7725872 C185.52073,67.7725872 181.563426,66.9138508 178.049823,65.1954517 C174.535319,63.4770526 171.559916,61.1240965 169.131714,58.1393623 C166.697212,55.1537018 164.82431,51.6724383 163.504908,47.6927928 C162.188207,43.7112945 161.527606,39.4917215 161.527606,35.0275894 L161.527606,34.846949 C161.527606,30.3855959 162.201707,26.1493485 163.550808,22.1372803 C164.89811,18.1279912 166.799812,14.6300532 169.260414,11.6443927 C171.721917,8.65965858 174.710819,6.29465973 178.226223,4.54476438 C181.740726,2.79579539 185.69533,1.92038453 190.090035,1.92038453 C194.482939,1.92038453 198.424043,2.78004725 201.910647,4.49844634 C205.39365,6.21777179 208.369953,8.56980159 210.828755,11.5536094 C213.291158,14.5392699 215.18116,18.0214597 216.497861,22.002958 C217.815462,25.9835299 218.476963,30.2031029 218.476963,34.6663087 L218.476963,34.846949 C218.476963,39.3101549 217.815462,43.5464023 216.497861,47.5556914 C215.18116,51.5668332 213.275858,55.0638448 210.786455,58.048579 C208.296153,61.0342395 205.29375,63.4020174 201.776546,65.15006 C198.262943,66.899029 194.308339,67.7725872 189.914535,67.7725872" id="Fill-94" fill="#FBB03B"></path>
                        <path d="M254.243178,52.2143593 C255.94328,52.2143593 257.494882,51.7928652 258.901583,50.9480242 C260.308284,50.1041097 261.492686,48.9128098 262.460187,47.3750511 C263.425888,45.8372923 264.174688,44.0290362 264.701189,41.9484301 C265.229489,39.867824 265.49319,37.5611859 265.49319,35.0275894 L265.49319,34.846949 C265.49319,32.3142789 265.213289,29.9937454 264.657089,27.8807166 C264.100888,25.7713933 263.324187,23.9464627 262.328787,22.4096304 C261.332486,20.8709452 260.132784,19.66575 258.725183,18.7903391 C257.319382,17.9177074 255.76688,17.4786124 254.068578,17.4786124 C252.366677,17.4786124 250.829475,17.9019592 249.454274,18.7458738 C248.077272,19.5907148 246.891071,20.7662665 245.89387,22.2734553 C244.898469,23.7815705 244.137068,25.590753 243.608768,27.7010026 C243.082267,29.813105 242.818567,32.1336386 242.818567,34.6663087 L242.818567,34.846949 C242.818567,37.3805455 243.093967,39.7177536 243.653768,41.8576468 C244.209969,43.99754 244.986669,45.8372923 245.98117,47.3750511 C246.979271,48.9128098 248.179872,50.1041097 249.584774,50.9480242 C250.993275,51.7928652 252.542177,52.2143593 254.243178,52.2143593 M254.068578,67.7725872 C249.674774,67.7725872 245.71927,66.9138508 242.203867,65.1954517 C238.688463,63.4770526 235.71486,61.1240965 233.283958,58.1393623 C230.852155,55.1537018 228.978353,51.6724383 227.660752,47.6927928 C226.341351,43.7112945 225.68075,39.4917215 225.68075,35.0275894 L225.68075,34.846949 C225.68075,30.3855959 226.353951,26.1493485 227.703952,22.1372803 C229.051253,18.1279912 230.954755,14.6300532 233.414458,11.6443927 C235.87506,8.65965858 238.863963,6.29465973 242.379367,4.54476438 C245.89387,2.79579539 249.849374,1.92038453 254.243178,1.92038453 C258.637883,1.92038453 262.578087,2.78004725 266.06469,4.49844634 C269.547694,6.21777179 272.523097,8.56980159 274.982799,11.5536094 C277.444302,14.5392699 279.334303,18.0214597 280.651905,22.002958 C281.971306,25.9835299 282.630107,30.2031029 282.630107,34.6663087 L282.630107,34.846949 C282.630107,39.3101549 281.971306,43.5464023 280.651905,47.5556914 C279.334303,51.5668332 277.431702,55.0638448 274.939599,58.048579 C272.449297,61.0342395 269.447794,63.4020174 265.93149,65.15006 C262.416987,66.899029 258.461483,67.7725872 254.068578,67.7725872" id="Fill-95" fill="#FBB03B"></path>
                        <path d="M66.1564683,112.982179 C75.4014183,112.982179 81.6600517,108.140676 81.6600517,100.734621 L81.6600517,100.59261 C81.6600517,92.687726 75.542035,88.5574718 66.5842767,88.5574718 L52.5023517,88.5574718 L52.5023517,112.982179 L66.1564683,112.982179 Z M48.8069933,85.1396597 L66.8678933,85.1396597 C77.8181183,85.1396597 85.35541,90.7652066 85.35541,100.377803 L85.35541,100.521008 C85.35541,110.988057 76.32496,116.401185 65.9443517,116.401185 L52.5023517,116.401185 L52.5023517,134.985538 L48.8069933,134.985538 L48.8069933,85.1396597 Z" id="Fill-96" fill="#FBB03B"></path>
                        <path d="M95.5210417,114.264097 L95.5210417,85.1398983 L99.2175917,85.1398983 L99.2175917,113.908473 C99.2175917,125.657202 105.546533,132.422418 116.070142,132.422418 C126.169517,132.422418 132.636692,126.299235 132.636692,114.265291 L132.636692,85.1398983 L136.336817,85.1398983 L136.336817,113.836871 C136.336817,128.150152 128.017792,135.769821 115.928333,135.769821 C103.983067,135.768628 95.5210417,128.221755 95.5210417,114.264097" id="Fill-97" fill="#FBB03B"></path>
                        <polygon id="Fill-98" fill="#FBB03B" points="150.342356 85.1396597 185.396422 85.1396597 185.396422 88.5574718 154.040097 88.5574718 154.040097 108.995129 182.197989 108.995129 182.197989 112.412941 154.040097 112.412941 154.040097 134.986731 150.342356 134.986731"></polygon>
                        <polygon id="Fill-99" fill="#FBB03B" points="196.984904 85.1396597 232.038971 85.1396597 232.038971 88.5574718 200.681454 88.5574718 200.681454 108.995129 228.839346 108.995129 228.839346 112.412941 200.681454 112.412941 200.681454 134.986731 196.984904 134.986731"></polygon>
                        <path d="M240.424967,127.72221 L242.844051,124.946431 C248.319759,130.001547 253.366467,132.351293 260.690451,132.351293 C268.157434,132.351293 273.276834,128.149436 273.276834,122.453481 L273.276834,122.310276 C273.276834,117.041547 270.505017,113.979359 259.199676,111.701215 C247.252026,109.279867 242.418626,105.221215 242.418626,97.6719558 L242.418626,97.5299448 C242.418626,90.1250829 249.174184,84.4267403 258.417942,84.4267403 C265.668042,84.4267403 270.433517,86.4208619 275.481417,90.4795138 L273.137409,93.3996906 C268.443434,89.3410387 263.749459,87.7741436 258.274942,87.7741436 C250.950959,87.7741436 246.113984,91.976 246.113984,97.1731271 L246.113984,97.3163315 C246.113984,102.585061 248.816684,105.790453 260.621334,108.211801 C272.138792,110.561547 276.975767,114.691801 276.975767,121.955845 L276.975767,122.097856 C276.975767,130.144751 270.077209,135.698696 260.477142,135.698696 C252.514426,135.698696 246.398792,133.063735 240.424967,127.72221" id="Fill-100" fill="#FBB03B"></path>
                    </g>
                    <path d="M71.1422974,162.19337 C71.1422974,168.01105 66.5611973,171.027624 60.8530011,171.027624 L56.5991224,171.027624 L56.5991224,178.569061 L51,178.569061 L51,153.430939 L61.3983702,153.430939 C67.4701457,153.430939 71.1422974,156.986188 71.1422974,162.121547 L71.1422974,162.19337 Z M65.4704592,162.301105 L65.4704592,162.229282 C65.4704592,159.751381 63.7252782,158.422652 60.925717,158.422652 L56.5991224,158.422652 L56.5991224,166.107735 L61.0347908,166.107735 C63.834352,166.107735 65.4704592,164.455801 65.4704592,162.301105 Z M94.6658831,178.569061 L75.2871023,178.569061 L75.2871023,153.430939 L94.4840934,153.430939 L94.4840934,158.350829 L80.8498668,158.350829 L80.8498668,163.450276 L92.8479862,163.450276 L92.8479862,168.370166 L80.8498668,168.370166 L80.8498668,173.649171 L94.6658831,173.649171 L94.6658831,178.569061 Z M121.643473,178.569061 L115.099044,178.569061 L109.645353,170.524862 L105.246043,170.524862 L105.246043,178.569061 L99.6469205,178.569061 L99.6469205,153.430939 L111.281461,153.430939 C117.28052,153.430939 120.879956,156.555249 120.879956,161.726519 L120.879956,161.798343 C120.879956,165.856354 118.662122,168.406077 115.426265,169.59116 L121.643473,178.569061 Z M115.208118,162.085635 L115.208118,162.013812 C115.208118,159.643646 113.535653,158.422652 110.808807,158.422652 L105.246043,158.422652 L105.246043,165.640884 L110.917881,165.640884 C113.644727,165.640884 115.208118,164.20442 115.208118,162.085635 Z M158.474064,171.674033 C158.474064,176.270718 154.692838,178.569061 148.948284,178.569061 L136.841091,178.569061 L136.841091,153.430939 L148.65742,153.430939 C153.856606,153.430939 157.056104,155.980663 157.056104,159.930939 L157.056104,160.002762 C157.056104,162.839779 155.529071,164.41989 153.711174,165.425414 C156.656167,166.538674 158.474064,168.226519 158.474064,171.60221 L158.474064,171.674033 Z M151.49334,160.936464 L151.49334,160.864641 C151.49334,159.212707 150.184454,158.279006 147.821188,158.279006 L142.294781,158.279006 L142.294781,163.593923 L147.457609,163.593923 C149.929948,163.593923 151.49334,162.803867 151.49334,160.936464 Z M152.911299,170.991713 L152.911299,170.91989 C152.911299,169.232044 151.638771,168.190608 148.766494,168.190608 L142.294781,168.190608 L142.294781,173.720994 L148.948284,173.720994 C151.420624,173.720994 152.911299,172.859116 152.911299,170.991713 Z M189.014731,166 C189.014731,173.146409 183.306535,179 175.45322,179 C167.599906,179 161.964426,173.218232 161.964426,166.071823 L161.964426,166 C161.964426,158.853591 167.672622,153 175.525936,153 C183.379251,153 189.014731,158.781768 189.014731,165.928177 L189.014731,166 Z M183.161103,166.071823 L183.161103,166 C183.161103,161.690608 179.961605,158.099448 175.45322,158.099448 C170.944836,158.099448 167.818054,161.618785 167.818054,165.928177 L167.818054,166 C167.818054,170.309392 171.017552,173.900552 175.525936,173.900552 C180.034321,173.900552 183.161103,170.381215 183.161103,166.071823 Z M213.265476,158.530387 L205.521235,158.530387 L205.521235,178.569061 L199.922113,178.569061 L199.922113,158.530387 L192.177872,158.530387 L192.177872,153.430939 L213.265476,153.430939 L213.265476,158.530387 Z M236.825419,158.530387 L229.081178,158.530387 L229.081178,178.569061 L223.482056,178.569061 L223.482056,158.530387 L215.737815,158.530387 L215.737815,153.430939 L236.825419,153.430939 L236.825419,158.530387 Z M259.403698,178.569061 L241.115656,178.569061 L241.115656,153.430939 L246.714778,153.430939 L246.714778,173.541436 L259.403698,173.541436 L259.403698,178.569061 Z M283,178.569061 L263.621219,178.569061 L263.621219,153.430939 L282.81821,153.430939 L282.81821,158.350829 L269.183984,158.350829 L269.183984,163.450276 L281.182103,163.450276 L281.182103,168.370166 L269.183984,168.370166 L269.183984,173.649171 L283,173.649171 L283,178.569061 Z" id="PER-BOTTLE" fill="#FBB03B"></path>
                    <text id="UP" font-family="GothamHTF-Ultra, Gotham HTF" font-size="34" font-weight="600" fill="#FBB03B">
                        <tspan x="43.554" y="34">UP </tspan>
                    </text>
                </g>
            </g>
        </g>
    </g>
</svg>