<?xml version="1.0" encoding="UTF-8"?>
<svg width="129px" height="130px" viewBox="0 0 129 130" version="1.1" xmlns="http://www.w3.org/2000/svg" xmlns:xlink="http://www.w3.org/1999/xlink">
    <!-- Generator: Sketch 51.2 (57519) - http://www.bohemiancoding.com/sketch -->
    <title>step 1</title>
    <desc>Created with Sketch.</desc>
    <defs>
        <polygon id="path-1" points="0 0.990769231 55.0206125 0.990769231 55.0206125 69.4163077 0 69.4163077"></polygon>
    </defs>
    <g id="Page-1" stroke="none" stroke-width="1" fill="none" fill-rule="evenodd">
        <g id="Nexa-home" transform="translate(-101.000000, -2496.000000)">
            <g id="step-1" transform="translate(102.000000, 2497.000000)">
                <path d="M112.592601,128.302549 L14.4025513,128.302549 L12.9462778,128.224881 L11.5239841,128.019385 C5.41896194,126.755663 0.681218834,121.603691 0.0825286187,115.382167 L6.45386747e-06,113.912949 L6.45386747e-06,14.3896002 C-0.00646587278,7.56129561 4.85586952,1.68765917 11.5239841,0.283164291 L12.9462778,0.0760498381 L14.4025513,0 L112.592601,0 L114.061819,0.0760498381 C120.263926,0.682830462 125.454732,5.39792043 126.716836,11.5029425 L126.92395,12.9203821 L127,14.3896002 L127,113.912949 C126.982201,116.419358 126.440144,118.563316 125.247618,120.765525 L124.542134,121.945106 L123.71044,123.058347 C122.150609,124.888397 120.398227,126.215224 118.183073,127.168274 L116.862718,127.645608 L115.47764,128.019385 L114.061819,128.224881 L112.592601,128.302549" id="Stroke-1" stroke="#FBB03B" fill="#FBB03B"></path>
                <g id="Group-14" transform="translate(36.000000, 23.000000)">
                    <g id="Group-3">
                        <mask id="mask-2" fill="white">
                            <use xlink:href="#path-1"></use>
                        </mask>
                        <g id="Clip-2"></g>
                        <path d="M12.177678,59.6849615 L12.9821659,59.7172692 L13.8262634,59.8020769 C19.7417756,60.8628462 21.8451902,67.0201538 29.174361,65.4828462 L30.097678,65.1934231 L30.9731902,64.8393846 C35.9257756,62.2615 39.4005073,57.1824615 46.0344585,60.0282308 L46.6477268,60.3445769 L47.2131902,60.7026538 L47.7294829,60.4455385 C55.0859707,55.3974615 49.8561171,46.3001538 43.3532878,43.3413077 L42.4791415,42.9132308 L42.3261659,41.9695769 L42.1568,40.9249615 L41.9669463,39.8049615 C40.1899707,32.1426538 39.1724098,16.7965 35.2428488,10.4507308 L34.7306537,9.66861538 L34.1802146,8.90803846 C27.2389463,0.199769231 18.8662634,7.05438462 17.5932878,15.6711154 L17.441678,16.3670769 L17.2887024,17.1438077 L17.1002146,18.0053462 L16.891239,18.9288077 L16.686361,19.9128462 C15.6756293,24.5274615 14.6471415,29.1420769 13.6350439,33.7607308 L13.3973854,34.8376538 L13.158361,35.8876538 L12.9507512,36.8622692 L12.7445073,37.7951538 L12.5382634,38.6580385 L12.3634341,39.4401538 L12.2104585,40.1266923 L12.0766049,40.7365 L11.9728,41.2413077 L11.8853854,41.6316923 L11.814361,41.9157308 L11.7815805,42.0705385 L11.590361,42.9132308 L10.8254829,43.3197692 L10.4280195,43.5243846 L9.96636098,43.7909231 L9.45006829,44.1180385 L8.88323902,44.4882308 C6.63777561,46.0524615 3.53865366,48.2763077 3.82821463,51.3482308 L3.77358049,52.3484231 L3.75719024,53.3136154 L3.77358049,54.2397692 L3.82821463,55.1363077 L3.9265561,55.9978462 L4.06587317,56.8122692 L4.25572683,57.5513077 L4.52753171,58.2593846 L4.85533659,58.8920769 L5.26782439,59.4655385 L5.76362927,59.9676538 L6.34958049,60.4091923 L7.01475122,60.7672692 L7.61709268,60.5303462 L8.33416585,60.2961154 L9.16050732,60.0591923 L10.1015805,59.8720769 L11.0972878,59.7334231 L12.177678,59.6849615 Z M27.1624585,69.4163077 L26.0151415,69.3826538 L24.955239,69.2709231 L23.975922,69.0824615 L23.0689951,68.8266923 C17.2518244,67.1116923 15.3218732,61.3070769 8.54177561,64.1649615 L8.26860488,64.2820769 L8.07875122,64.3682308 L8.00772683,64.3991923 L7.32343415,64.7707308 L6.56948293,64.5499615 L5.54099512,64.1743846 L4.63270244,63.7355385 L3.82821463,63.2320769 L3.1043122,62.6586154 L2.48967805,62.0313077 L1.95836098,61.3393846 L1.49670244,60.6111154 L1.11426341,59.8559231 C0.174556098,57.8191923 -0.0166634146,55.3705385 0.00109268293,53.1574615 L0.0174829268,52.3484231 L0.0338731707,51.5716923 L0.0871414634,50.8111154 L0.119921951,50.0976538 L0.23875122,49.1701538 L0.494165854,48.2763077 C1.33689756,45.9891923 3.33240976,43.9255385 5.26782439,42.4730385 L5.95348293,41.9588077 L6.62275122,41.4768846 C9.27523902,40.0620769 8.09514146,40.2222692 9.12909268,36.7182308 L9.34762927,35.7005385 L9.58938537,34.6020769 L9.8448,33.4659231 C11.3909463,26.5211154 12.9248,19.5709231 14.4026537,12.6113077 L14.679922,11.7322692 L15.0049951,10.8155385 L15.4024585,9.90419231 L15.8805073,8.99419231 L16.3981659,8.07746154 C30.8161171,-10.1144615 42.9066537,10.5799615 43.5431415,26.8253462 L43.7835317,28.1445769 L44.0061659,29.4422692 L44.2451902,30.7278462 C47.1804098,46.3311154 43.5267512,36.2793846 52.0141659,45.6566923 L52.6342634,46.4818846 L53.1942634,47.3447692 C56.6567024,52.9111154 55.1843122,61.1630385 48.8768,64.0316923 L48.307239,64.2659231 L47.7786537,64.4530385 L47.2828488,64.5822692 L46.3718244,64.7855385 L45.6684098,64.1972692 C39.7706537,59.5288077 35.8451902,69.0999615 28.3480195,69.3732308 L27.1624585,69.4163077 Z" id="Fill-1" fill="#FFFFFF" mask="url(#mask-2)"></path>
                    </g>
                    <path d="M5.88573763,81 L5.4798574,80.9497468 L5.08876089,80.821322 L4.74067155,80.5937867 C2.85373167,78.5264265 5.00946641,77.4320238 6.35747261,76.0933348 L6.99451641,75.4037494 L7.55629766,74.7602294 C8.38418581,73.7035166 9.15428307,72.5309423 9.44323754,71.1810858 L9.67843304,70.7469542 L10.0211465,70.3909941 L10.4229948,70.1481037 L10.8987617,70.0140952 C12.4389562,69.8410009 13.3810822,71.2913637 12.8515563,72.7584775 L12.7547902,73.1144376 L12.6002331,73.536006 C11.562685,76.2538658 9.19325833,78.7930476 7.03214769,80.5770357 L6.67733848,80.821322 L6.28892992,80.9664979 L5.88573763,81" id="Fill-4" fill="#FFFFFF"></path>
                    <polygon id="Fill-6" fill="#FFFFFF" points="15.8020879 83 15.2096564 82.9016027 14.7699 82.6733756 14.4267073 82.3303516 14.1774685 81.9340291 14.031318 81.4762082 14 80.9978879 14.0991736 80.4922351 16.5041322 73.2668654 16.7220531 72.8213443 17.0430622 72.4687539 17.4227925 72.206361 17.8638538 72.0546652 18.323184 72 18.799478 72.1038638 19.2248804 72.3266244 19.5680731 72.6751149 19.8173119 73.0605044 19.9634624 73.5278917 20 74.0130451 19.8956068 74.5022984 17.4854284 81.7263014 17.2883863 82.1622562 16.9973902 82.5203131 16.6398434 82.7772394 16.2444541 82.9508013"></polygon>
                    <path d="M50.1493486,81 L49.7410968,80.9664549 L49.3517706,80.8210928 L48.9975918,80.576493 C46.9319999,78.8908513 44.7028369,76.5259212 43.5997459,74.0170267 L43.3969719,73.5264295 L43.2401599,73.1043202 C42.6805035,71.7177891 43.0806443,70.2557814 44.6338937,70 L45.1232552,70 L45.5801727,70.1160102 L45.9897764,70.3620076 L46.3115113,70.7128335 C46.8887415,71.7415502 46.7697807,72.4362135 47.6673939,73.6438374 L48.0445537,74.1889454 L48.5014713,74.7899619 L49.0476095,75.4189327 L49.6910792,76.1094028 L50.4494542,76.8208386 L51.3213828,77.5770013 L51.6606914,77.9445997 L51.898613,78.3834816 L52,78.8740788 L52,79.3702668 L51.8661691,79.8412961 L51.6066183,80.2815756 L51.1889037,80.6827192 L50.6981904,80.9161372 L50.1493486,81" id="Fill-8" fill="#FFFFFF"></path>
                    <polygon id="Fill-10" fill="#FFFFFF" points="41.1975201 83 40.7563628 82.9508013 40.3608875 82.7772394 40.003263 82.5203131 39.7056776 82.1622562 39.5098978 81.7263014 37.0965847 74.5022984 37 74.0130451 37.0365456 73.5278917 37.1814227 73.0605044 37.4268001 72.6751149 37.767457 72.3266244 38.1942571 72.1038638 38.678486 72 39.150968 72.0546652 39.5777681 72.206361 39.9667174 72.4687539 40.27866 72.8213443 40.4966282 73.2668654 42.9021101 80.4922351 43 80.9978879 42.9699804 81.4762082 42.8185773 81.9340291 42.5758103 82.3303516 42.232543 82.6733756 41.7900805 82.9016027"></polygon>
                    <polygon id="Fill-12" fill="#FFFFFF" points="16.941844 51 16.5801418 50.968032 16.0836879 50.8188478 15.6595745 50.5644356 15.3205674 50.2154512 15.1049645 49.7958708 15 49.3456543 15.0156028 48.8474858 18.1333333 32.5051615 18.2893617 32.038961 18.577305 31.6366966 18.951773 31.3183483 19.3957447 31.0959041 19.8765957 31 20.4141844 31.015984 20.9092199 31.1691642 21.3390071 31.4355644 21.6780142 31.7845488 21.8865248 32.2094572 22 32.6543457 21.9843972 33.1525142 18.8666667 49.4988345 18.6851064 49.998335 18.3858156 50.4165834 17.9758865 50.7349317 17.470922 50.9360639"></polygon>
                </g>
            </g>
        </g>
    </g>
</svg>